# xmcd CD database file
#
# Track frame offsets:
#	150
#	15006
#	28014
#	43086
#	54435
#	77598
#	92646
#	110676
#	127551
#	143722
#	158004
#	172237
#	192968
#	210594
#	222800
#	232441
#
# Disc length: 3315 seconds
#
# Revision: 0
# Processed by: cddbd v1.4PL0 Copyright (c) Steve Scherf et al.
# Submitted via: CDex 1.50beta9
#
DISCID=d00cf110
DTITLE=PAN PIPES - The Pan Pipes Play Daniel O'Donnell
DYEAR=1900
DGENRE=Country
TTITLE0=My Donegal Shore
TTITLE1=I Just Want To Dance With You
TTITLE2=Don't Forget To Remember Me
TTITLE3=Stand Beside Me
TTITLE4=Irish Medley: Forty Shades Of Green/I'll Take You/Home Again Kathleen /Galway Bay
TTITLE5=Take Good Care Of Her
TTITLE6=My Forever Friend
TTITLE7=Follow Your Dream
TTITLE8=I Need You
TTITLE9=The Last Waltz
TTITLE10=Footsteps
TTITLE11=Gospel Set;Old Rugged Cross/It is No Secet/What A Friend We Have In Jesus
TTITLE12=Far Far From Home
TTITLE13=What Ever Happened To Old Fashioned Love
TTITLE14=Our House Is A Home
TTITLE15=Danny Boy
EXTD=
EXTT0=
EXTT1=
EXTT2=
EXTT3=
EXTT4=
EXTT5=
EXTT6=
EXTT7=
EXTT8=
EXTT9=
EXTT10=
EXTT11=
EXTT12=
EXTT13=
EXTT14=
EXTT15=
PLAYORDER=
